<svg width="24" height="24" fill="none" xmlns="http://www.w3.org/2000/svg"><g clip-path="url(#a)"><path d="M15.78 22v-7.74h2.592l.388-3.009h-2.98v-1.92c0-.871.242-1.465 1.491-1.465h1.593V5.174a21.323 21.323 0 0 0-2.322-.118c-2.296 0-3.869 1.402-3.869 3.977v2.218h-2.597v3.009h2.597V22H3.111A1.111 1.111 0 0 1 2 20.889V3.11A1.111 1.111 0 0 1 3.111 2H20.89A1.111 1.111 0 0 1 22 3.111V20.89A1.111 1.111 0 0 1 20.889 22H15.78Z" fill="#A1A6B4"/></g><defs><clipPath id="a"><path fill="#fff" d="M0 0h24v24H0z"/></clipPath></defs></svg>