<svg width="88" height="10" fill="none" xmlns="http://www.w3.org/2000/svg"><path d="M16.4.166V5.87c0 1.345-.4 2.371-1.2 3.08-.8.7-1.934 1.05-3.402 1.05-.729 0-1.382-.097-1.959-.29-.567-.193-1.032-.465-1.397-.815-.374.35-.845.622-1.412.815-.567.193-1.21.29-1.929.29C3.633 10 2.5 9.65 1.7 8.95.9 8.241.5 7.215.5 5.87V.166h2.46V5.8c0 .783.177 1.363.532 1.74.354.369.88.553 1.579.553 1.427 0 2.141-.764 2.141-2.293V.166h2.46V5.8c0 1.529.72 2.293 2.157 2.293 1.397 0 2.095-.764 2.095-2.293V.166H16.4ZM53.617.166V5.87c0 1.345-.4 2.371-1.2 3.08-.8.7-1.933 1.05-3.401 1.05-.73 0-1.382-.097-1.96-.29-.566-.193-1.032-.465-1.396-.815-.375.35-.846.622-1.413.815-.566.193-1.21.29-1.928.29-1.468 0-2.602-.35-3.402-1.05-.8-.709-1.2-1.735-1.2-3.08V.166h2.46V5.8c0 .783.178 1.363.532 1.74.354.369.88.553 1.58.553 1.427 0 2.14-.764 2.14-2.293V.166h2.46V5.8c0 1.529.72 2.293 2.157 2.293 1.397 0 2.096-.764 2.096-2.293V.166h2.475ZM60.833 0c.982 0 1.838.175 2.567.525a3.89 3.89 0 0 1 1.7 1.547c.405.681.608 1.505.608 2.472v5.29h-2.46v-2.32h-4.86v2.32h-2.43v-5.29c0-.967.203-1.79.608-2.472a3.89 3.89 0 0 1 1.7-1.547C58.997.175 59.852 0 60.834 0Zm2.415 5.718V4.337c0-.801-.218-1.404-.653-1.81-.436-.414-1.028-.62-1.777-.62-.76 0-1.357.206-1.792.62-.425.406-.638 1.009-.638 1.81v1.381h4.86ZM78.06.166l-4.602 9.668h-2.43L66.442.166H69.1l3.234 6.906 3.28-6.906h2.445ZM87.5 9.006c-.506.313-1.144.557-1.913.732-.76.175-1.57.262-2.43.262-1.073 0-1.984-.12-2.734-.36-.749-.248-1.316-.588-1.7-1.021a2.23 2.23 0 0 1-.578-1.506c0-.515.157-.971.471-1.367.314-.396.744-.69 1.291-.884a2.403 2.403 0 0 1-.972-.829 2.14 2.14 0 0 1-.334-1.174c0-.525.177-1.004.531-1.436.355-.433.891-.778 1.61-1.036.719-.258 1.6-.387 2.643-.387.688 0 1.361.064 2.02.193.657.12 1.23.286 1.715.498l-.683 1.712a7.49 7.49 0 0 0-2.961-.594c-.79 0-1.387.11-1.792.332-.395.212-.593.502-.593.87 0 .34.132.603.395.787.274.175.684.263 1.23.263h2.9v1.768h-3.051c-.618 0-1.094.096-1.428.29-.334.193-.501.474-.501.842 0 .387.213.69.638.912.435.212 1.098.318 1.99.318.627 0 1.255-.074 1.882-.221.628-.157 1.16-.373 1.595-.65l.759 1.686Z" fill="#292E39"/><path d="M31.048 5.422H18.5V3.578h12.548l-2.222-2.273L30.101 0 34.5 4.5 30.101 9l-1.275-1.305 2.222-2.273Z" fill="#6D31EE"/></svg>