<svg width="112" height="14" fill="none" xmlns="http://www.w3.org/2000/svg"><path d="M20.469.232v7.986c0 1.882-.515 3.32-1.545 4.312-1.03.98-2.49 1.47-4.379 1.47-.938 0-1.779-.135-2.522-.406-.73-.27-1.33-.651-1.798-1.141-.483.49-1.089.87-1.819 1.14-.73.272-1.557.407-2.482.407-1.89 0-3.35-.49-4.38-1.47C.514 11.538 0 10.1 0 8.218V.232h3.167v7.89c0 1.095.228 1.908.684 2.436.456.516 1.134.774 2.033.774 1.838 0 2.757-1.07 2.757-3.21V.232h3.167v7.89c0 2.14.925 3.21 2.776 3.21 1.799 0 2.698-1.07 2.698-3.21V.232h3.187ZM68.38.232v7.986c0 1.882-.514 3.32-1.544 4.312-1.03.98-2.49 1.47-4.379 1.47-.938 0-1.779-.135-2.522-.406-.73-.27-1.33-.651-1.798-1.141-.483.49-1.089.87-1.819 1.14-.73.272-1.557.407-2.482.407-1.89 0-3.35-.49-4.38-1.47-1.03-.992-1.544-2.43-1.544-4.312V.232h3.167v7.89c0 1.095.228 1.908.684 2.436.457.516 1.134.774 2.034.774 1.837 0 2.756-1.07 2.756-3.21V.232h3.167v7.89c0 2.14.925 3.21 2.776 3.21 1.799 0 2.698-1.07 2.698-3.21V.232h3.187ZM77.67 0c1.264 0 2.366.245 3.304.735a5.19 5.19 0 0 1 2.19 2.166c.521.954.782 2.107.782 3.46v7.407h-3.167v-3.249h-6.256v3.249h-3.128V6.362c0-1.354.26-2.507.782-3.461a5.19 5.19 0 0 1 2.19-2.166C75.304.245 76.405 0 77.67 0Zm3.109 8.006V6.072c0-1.122-.28-1.966-.841-2.533-.56-.58-1.323-.87-2.287-.87-.978 0-1.747.29-2.307.87-.548.567-.821 1.411-.821 2.533v1.934h6.256ZM99.847.232l-5.924 13.536h-3.128L84.891.232h3.421l4.165 9.669L96.698.232h3.148ZM112 12.608c-.652.438-1.473.78-2.463 1.025-.978.245-2.02.367-3.128.367-1.382 0-2.555-.168-3.519-.503-.965-.348-1.694-.825-2.19-1.43a3.284 3.284 0 0 1-.743-2.108c0-.722.202-1.36.606-1.915.404-.554.958-.967 1.662-1.237a3.184 3.184 0 0 1-1.251-1.16 3.19 3.19 0 0 1-.43-1.644c0-.735.228-1.405.684-2.011.456-.606 1.147-1.09 2.072-1.45.926-.362 2.06-.542 3.402-.542.886 0 1.753.09 2.6.27.847.168 1.584.4 2.209.697l-.879 2.398a8.982 8.982 0 0 0-3.813-.832c-1.016 0-1.785.155-2.307.464-.508.297-.762.703-.762 1.218 0 .477.169.845.508 1.103.352.245.88.367 1.584.367h3.734V8.16h-3.93c-.795 0-1.407.136-1.837.406-.43.271-.645.664-.645 1.18 0 .541.273.967.821 1.276.56.297 1.414.445 2.561.445a9.77 9.77 0 0 0 2.424-.31c.808-.219 1.492-.522 2.052-.908l.978 2.359Z" fill="#292E39"/><path d="M39.47 7.627H23V5.373h16.47l-2.917-2.779L38.227 1 44 6.5 38.227 12l-1.674-1.594 2.916-2.779Z" fill="#6D31EE"/></svg>