<svg width="113" height="14" fill="none" xmlns="http://www.w3.org/2000/svg"><path d="M20.651.232v7.986c0 1.882-.52 3.32-1.558 4.312-1.039.98-2.511 1.47-4.418 1.47-.947 0-1.795-.135-2.545-.406-.736-.27-1.34-.651-1.814-1.141-.487.49-1.098.87-1.835 1.14-.736.272-1.57.407-2.505.407-1.906 0-3.379-.49-4.418-1.47C.52 11.538 0 10.1 0 8.218V.232h3.195v7.89c0 1.095.23 1.908.69 2.436.46.516 1.145.774 2.052.774 1.854 0 2.781-1.07 2.781-3.21V.232h3.196v7.89c0 2.14.933 3.21 2.8 3.21 1.815 0 2.722-1.07 2.722-3.21V.232h3.215ZM68.991.232v7.986c0 1.882-.52 3.32-1.558 4.312-1.039.98-2.512 1.47-4.418 1.47-.947 0-1.795-.135-2.545-.406-.736-.27-1.34-.651-1.814-1.141-.487.49-1.098.87-1.835 1.14-.736.272-1.571.407-2.505.407-1.906 0-3.379-.49-4.418-1.47-1.039-.992-1.558-2.43-1.558-4.312V.232h3.195v7.89c0 1.095.23 1.908.69 2.436.46.516 1.145.774 2.052.774 1.854 0 2.781-1.07 2.781-3.21V.232h3.195v7.89c0 2.14.934 3.21 2.801 3.21 1.815 0 2.722-1.07 2.722-3.21V.232h3.215ZM78.364 0c1.275 0 2.386.245 3.333.735a5.213 5.213 0 0 1 2.21 2.166c.525.954.788 2.107.788 3.46v7.407H81.5v-3.249h-6.312v3.249h-3.156V6.362c0-1.354.263-2.507.79-3.461A5.213 5.213 0 0 1 75.03.735C75.977.245 77.088 0 78.364 0ZM81.5 8.006V6.072c0-1.122-.283-1.966-.848-2.533-.566-.58-1.335-.87-2.308-.87-.986 0-1.762.29-2.328.87-.552.567-.828 1.411-.828 2.533v1.934H81.5ZM100.738.232l-5.976 13.536h-3.156L85.649.232h3.452l4.201 9.669 4.26-9.669h3.176ZM113 12.608c-.657.438-1.486.78-2.485 1.025-.986.245-2.038.367-3.156.367-1.394 0-2.577-.168-3.551-.503-.973-.348-1.709-.825-2.209-1.43a3.268 3.268 0 0 1-.749-2.108c0-.722.204-1.36.611-1.915.408-.554.967-.967 1.677-1.237a3.205 3.205 0 0 1-1.263-1.16 3.173 3.173 0 0 1-.433-1.644c0-.735.23-1.405.69-2.011.46-.606 1.157-1.09 2.091-1.45C105.156.18 106.3 0 107.655 0c.894 0 1.768.09 2.623.27.855.168 1.598.4 2.229.697l-.888 2.398a9.123 9.123 0 0 0-3.846-.832c-1.026 0-1.801.155-2.327.464-.513.297-.77.703-.77 1.218 0 .477.171.845.513 1.103.355.245.888.367 1.598.367h3.767V8.16h-3.964c-.803 0-1.421.136-1.854.406-.434.271-.651.664-.651 1.18 0 .541.276.967.828 1.276.565.297 1.427.445 2.584.445.815 0 1.63-.103 2.446-.31.815-.219 1.505-.522 2.071-.908l.986 2.359Z" fill="#292E39"/><path d="M39.47 7.627H23V5.373h16.47l-2.917-2.779L38.227 1 44 6.5 38.227 12l-1.674-1.594 2.916-2.779Z" fill="#6D31EE"/></svg>