<svg data-name="Слой 1" xmlns="http://www.w3.org/2000/svg" viewBox="0 0 33.3 33.3"><path d="M31.6.4H2.4a2 2 0 0 0-2 2v29.3a2 2 0 0 0 2 2h29.3a2 2 0 0 0 2-2V2.4a2 2 0 0 0-2.1-2Zm-5.7 19.2a11.83 11.83 0 0 1 2.3 2.6c.8 1.3-.8 1.4-.8 1.4h-3a2.19 2.19 0 0 1-1.5-.5 5.35 5.35 0 0 1-1.3-1.3c-.6-.7-1.2-1.4-1.7-1.3-.8.3-.8 2.1-.8 2.1a1 1 0 0 1-.2.6 1.55 1.55 0 0 1-.6.3h-1.4a7.83 7.83 0 0 1-5.7-2.6c-2.9-3-5.4-9-5.4-9a1.15 1.15 0 0 1 0-.6h3.9a4.71 4.71 0 0 1 .5.2.78.78 0 0 1 .3.4 19.74 19.74 0 0 0 1.2 2.5c1.4 2.4 2 2.9 2.5 2.6.7-.4.5-3.3.5-3.3a4.12 4.12 0 0 0-.3-1.6 1.35 1.35 0 0 0-1-.5c-.2 0 .1-.5.5-.6a7.2 7.2 0 0 1 2.8-.3 4.66 4.66 0 0 1 1.6.2c.9.2.8.9.8 2.3v1.9c0 .7 0 1.6.4 1.9.2.2.9 0 2.4-2.6a23.94 23.94 0 0 0 1.3-2.7.78.78 0 0 1 .3-.4 1 1 0 0 1 .4-.1h3.4s1-.1 1.2.3-.4 1.6-1.8 3.5-2 2.4-1.9 3c-.2.6.3 1 1.1 1.6Z" transform="translate(-.4 -.4)" style="fill:#a1a6b4"/></svg>